<?xml version="1.0" encoding="utf-8"?><svg xmlns="http://www.w3.org/2000/svg" xmlns:xlink="http://www.w3.org/1999/xlink" width="1920" height="937" preserveAspectRatio="xMidYMid" viewBox="0 0 1920 937" style="z-index:1;margin-right:-2px;display:block;background-repeat-y:initial;background-repeat-x:initial;background-color:rgb(255, 255, 255);animation-play-state:paused" ><g transform="translate(960,468.5) scale(1,1) translate(-960,-468.5)" style="transform:matrix(1, 0, 0, 1, 0, 0);animation-play-state:paused" ><linearGradient id="lg-0.03535377713915344" x1="0" x2="1" y1="0" y2="0" style="animation-play-state:paused" ><stop stop-color="#ff00ff" offset="0" style="animation-play-state:paused" ></stop>

  
<stop stop-color="#00ffff" offset="1" style="animation-play-state:paused" ></stop></linearGradient>
<path d="M 0 0 L 0 814.841 Q 192 666.132 384 616.662 T 768 290.678 T 1152 -83.8538 T 1536 -353.863 T 1920 -698.333 L 1920 0 Z" fill="url(#lg-0.03535377713915344)" opacity="0.4" style="opacity:0.4;animation-play-state:paused" ></path>
<path d="M 0 0 L 0 853.618 Q 192 549.206 384 518.966 T 768 237.527 T 1152 6.81424 T 1536 -326.458 T 1920 -632.451 L 1920 0 Z" fill="url(#lg-0.03535377713915344)" opacity="0.4" style="opacity:0.4;animation-play-state:paused" ></path>
<path d="M 0 0 L 0 902.525 Q 192 525.211 384 507.722 T 768 227.635 T 1152 -173.188 T 1536 -575.499 T 1920 -842.032 L 1920 0 Z" fill="url(#lg-0.03535377713915344)" opacity="0.4" style="opacity:0.4;animation-play-state:paused" ></path>
<path d="M 0 0 L 0 868.086 Q 192 503.09 384 485.305 T 768 165.078 T 1152 -112.363 T 1536 -538.062 T 1920 -819.187 L 1920 0 Z" fill="url(#lg-0.03535377713915344)" opacity="0.4" style="opacity:0.4;animation-play-state:paused" ></path>
<path d="M 0 0 L 0 851.529 Q 192 529.902 384 509.403 T 768 203.449 T 1152 -20.327 T 1536 -426.367 T 1920 -702.438 L 1920 0 Z" fill="url(#lg-0.03535377713915344)" opacity="0.4" style="opacity:0.4;animation-play-state:paused" ></path></g></svg>